<?xml version="1.0" standalone="no"?>
<!DOCTYPE svg PUBLIC "-//W3C//DTD SVG 20010904//EN"
 "http://www.w3.org/TR/2001/REC-SVG-20010904/DTD/svg10.dtd">
<svg version="1.0" xmlns="http://www.w3.org/2000/svg"
 viewBox="0 0 2600.000000 2600.000000"
 preserveAspectRatio="xMidYMid meet">
<metadata>
Created by potrace 1.15, written by Peter Selinger 2001-2017
</metadata>
<g transform="translate(0.000000,2600.000000) scale(0.100000,-0.100000)"
fill="#000000" stroke="none">
<path d="M15110 22730 c-256 -38 -466 -69 -467 -69 -2 -1 -4 -1037 -5 -2303
l-3 -2302 -1745 -488 c-960 -268 -1751 -488 -1757 -488 -10 0 -13 451 -13
2223 l0 2223 -472 -67 c-260 -38 -474 -68 -475 -69 -2 0 -4 -1031 -5 -2292
l-3 -2292 -305 -87 c-168 -48 -893 -255 -1612 -459 l-1308 -373 0 -1418 c0
-781 2 -1419 5 -1419 7 0 3161 897 3198 910 l27 9 0 -2193 0 -2192 -1615 -460
-1615 -459 0 -1419 0 -1419 28 6 c15 3 730 206 1588 451 859 245 1574 448
1588 452 l26 6 0 -2321 c0 -2234 1 -2321 18 -2321 10 0 222 29 472 65 250 36
455 65 457 65 2 0 3 1075 3 2389 l0 2389 33 11 c49 15 3474 971 3481 971 3 0
6 -1039 6 -2310 0 -1899 2 -2310 13 -2310 7 0 217 29 467 65 250 36 457 65
462 65 4 0 8 1071 8 2380 l0 2379 38 11 c20 7 741 213 1602 459 l1565 447 3
1420 2 1421 -1584 -452 c-871 -249 -1593 -456 -1605 -460 l-21 -6 2 2192 3
2193 1565 447 c861 246 1582 452 1603 459 l37 11 0 1420 c0 1348 -1 1420 -17
1415 -112 -34 -3176 -906 -3183 -906 -7 0 -10 772 -10 2235 0 1229 -3 2235 -7
2234 -5 -1 -217 -32 -473 -69z m-470 -9708 l0 -2188 -1746 -488 c-961 -268
-1753 -490 -1760 -493 -12 -4 -14 332 -12 2188 l3 2194 1740 487 c957 267
1748 487 1758 487 16 1 17 -110 17 -2187z"/>
</g>
</svg>
